<svg id="Capa_1" data-name="Capa 1" xmlns="http://www.w3.org/2000/svg" viewBox="0 0 24 13"><defs><style>.cls-1{fill:#ff2a30;}.cls-2{fill:#fff;}</style></defs><title>battery-red</title><path class="cls-1" d="M23.67,3.7a1.79,1.79,0,0,1,1.79,1.79v5.43a1.79,1.79,0,0,1-1.79,1.78H10.12a1.79,1.79,0,0,1-1.79-1.78V5.49A1.79,1.79,0,0,1,10.12,3.7H23.67m0-2H10.12A3.79,3.79,0,0,0,6.33,5.49v5.43a3.79,3.79,0,0,0,3.79,3.78H23.67a3.79,3.79,0,0,0,3.79-3.78V5.49A3.79,3.79,0,0,0,23.67,1.7Z" transform="translate(-3.08 -1.7)"/><rect class="cls-2" x="1" y="4.25" width="2.88" height="4.5" rx="0.5"/><path class="cls-1" d="M6,7v2.5H5.08V7H6m.5-2H4.58a1.51,1.51,0,0,0-1.5,1.51V10a1.5,1.5,0,0,0,1.5,1.5H6.46A1.5,1.5,0,0,0,8,10V6.46A1.51,1.51,0,0,0,6.46,5Z" transform="translate(-3.08 -1.7)"/></svg>