<svg id="Capa_1" data-name="Capa 1" xmlns="http://www.w3.org/2000/svg" viewBox="0 0 24 13"><defs><style>.cls-1{fill:#34aa00;}.cls-2{fill:#fff;}</style></defs><title>prueba 1</title><path class="cls-1" d="M27.2,5a.8.8,0,0,1,.8.8v7.4a.8.8,0,0,1-.8.8H11.67a.79.79,0,0,1-.79-.8V5.8a.79.79,0,0,1,.79-.8H27.2m0-2H11.67A2.79,2.79,0,0,0,8.88,5.8v7.4A2.79,2.79,0,0,0,11.67,16H27.2A2.8,2.8,0,0,0,30,13.2V5.8A2.8,2.8,0,0,0,27.2,3Z" transform="translate(-5.63 -3)"/><rect class="cls-2" x="1" y="4.25" width="2.88" height="4.5" rx="0.5"/><path class="cls-1" d="M8.5,8.25v2.5H7.63V8.25H8.5m.5-2H7.13a1.5,1.5,0,0,0-1.5,1.5v3.5a1.5,1.5,0,0,0,1.5,1.5H9a1.5,1.5,0,0,0,1.5-1.5V7.75A1.5,1.5,0,0,0,9,6.25Z" transform="translate(-5.63 -3)"/></svg>