<svg id="Capa_1" data-name="Capa 1" xmlns="http://www.w3.org/2000/svg" viewBox="0 0 16 15"><defs><style>.cls-1{fill:#d40005;}</style></defs><title>heartIcon</title><rect class="cls-1" x="3.88" y="4.41" width="8.24" height="8.24" transform="translate(-3.69 8.16) rotate(-45)"/><path class="cls-1" d="M8,3.41l5.12,5.13L8,13.66,2.88,8.54,8,3.41M8,2,1.46,8.54,8,15.07l6.54-6.53L8,2Z" transform="translate(0 0)"/><circle class="cls-1" cx="5" cy="5" r="4.5"/><path class="cls-1" d="M5,1A4,4,0,1,1,1,5,4,4,0,0,1,5,1M5,0a5,5,0,1,0,5,5A5,5,0,0,0,5,0Z" transform="translate(0 0)"/><path class="cls-1" d="M11,9.5A4.5,4.5,0,1,1,15.5,5,4.51,4.51,0,0,1,11,9.5Z" transform="translate(0 0)"/><path class="cls-1" d="M11,1A4,4,0,1,1,7,5a4,4,0,0,1,4-4m0-1a5,5,0,1,0,5,5,5,5,0,0,0-5-5Z" transform="translate(0 0)"/></svg>